<svg width="24" height="25" viewBox="0 0 24 25" fill="none" xmlns="http://www.w3.org/2000/svg">
<path d="M8 4.5V16.5C8 17.0304 8.21071 17.5391 8.58579 17.9142C8.96086 18.2893 9.46957 18.5 10 18.5H18C18.5304 18.5 19.0391 18.2893 19.4142 17.9142C19.7893 17.5391 20 17.0304 20 16.5V7.742C20 7.47556 19.9467 7.21181 19.8433 6.96624C19.7399 6.72068 19.5885 6.49824 19.398 6.312L16.083 3.07C15.7094 2.70466 15.2076 2.50007 14.685 2.5H10C9.46957 2.5 8.96086 2.71071 8.58579 3.08579C8.21071 3.46086 8 3.96957 8 4.5V4.5Z" stroke="white" stroke-width="2" stroke-linecap="round" stroke-linejoin="round"/>
<path d="M16 18.5V20.5C16 21.0304 15.7893 21.5391 15.4142 21.9142C15.0391 22.2893 14.5304 22.5 14 22.5H6C5.46957 22.5 4.96086 22.2893 4.58579 21.9142C4.21071 21.5391 4 21.0304 4 20.5V9.5C4 8.96957 4.21071 8.46086 4.58579 8.08579C4.96086 7.71071 5.46957 7.5 6 7.5H8" stroke="white" stroke-width="2" stroke-linecap="round" stroke-linejoin="round"/>
</svg>
