<svg width="151" height="170" viewBox="0 0 151 170" fill="none" xmlns="http://www.w3.org/2000/svg">
<g clip-path="url(#clip0_40:44)">
<path d="M126.889 105.556C127.352 102.778 127.583 100.463 127.583 98.6113C127.815 84.9538 124.979 74.4793 119.076 67.1876C113.174 59.896 104.898 53.1251 94.2499 46.8751C96.5648 59.6066 94.4235 69.6182 87.8263 76.9099C81.2291 84.2015 72.8379 86.4585 62.6527 83.6807C68.2083 74.6529 71.5648 66.6668 72.7222 59.7224C73.8796 52.7779 73.4745 47.396 71.5069 43.5765C69.5393 39.7571 67.5138 35.5904 65.4305 31.0765C63.3472 26.5626 61.6689 22.2224 60.3958 18.0557C59.1226 13.889 59.7592 8.10199 62.3055 0.69458C52.1203 7.87051 42.8611 19.9654 34.5277 36.9793C26.1944 53.9932 22.0277 69.6761 22.0277 84.0279C22.4907 92.5927 23.3009 99.7687 24.4583 105.556C8.71754 112.037 0.847168 119.792 0.847168 128.82C0.847168 137.384 8.13883 144.792 22.7222 151.042C37.3055 157.292 54.8981 160.417 75.4999 160.417C96.1018 160.417 113.694 157.292 128.278 151.042C142.861 144.792 150.153 137.384 150.153 128.82C150.153 119.792 142.398 112.037 126.889 105.556ZM47.0277 67.3613C44.4814 79.3983 45.8703 89.7571 51.1944 98.4376C56.5185 107.118 62.9999 111.458 70.6388 111.458C85.2222 111.458 95.4073 99.8844 101.194 76.7363C109.528 82.9863 114.042 91.3196 114.736 101.736C115.43 113.079 111.148 122.685 101.889 130.556V130.903C99.111 132.755 96.912 134.144 95.2916 135.07C95.0601 135.301 94.8286 135.417 94.5972 135.417L91.8194 136.806L91.1249 137.153C88.8101 138.079 86.1481 138.889 83.1388 139.583C82.4444 139.583 81.9814 139.699 81.7499 139.931C81.287 139.931 80.7083 139.989 80.0138 140.104C79.3194 140.22 78.8564 140.278 78.6249 140.278C77.9305 140.278 77.4675 140.394 77.236 140.625H68.2083C67.9768 140.625 67.5138 140.567 66.8194 140.452C66.1249 140.336 65.662 140.278 65.4305 140.278H65.0833C63.2314 139.815 62.074 139.583 61.611 139.583L61.2638 139.236L58.1388 138.195H57.7916C50.8472 135.417 45.3495 130.845 41.2986 124.479C37.2476 118.114 35.3379 110.533 35.5694 101.736L35.2222 102.083C35.6851 90.9724 39.6203 79.3983 47.0277 67.3613Z" fill="#E4A951"/>
</g>
<defs>
<clipPath id="clip0_40:44">
<rect width="150" height="169.444" fill="white" transform="translate(0.5)"/>
</clipPath>
</defs>
</svg>
