<svg width="22" height="21" viewBox="0 0 22 21" fill="none" xmlns="http://www.w3.org/2000/svg">
<path fill-rule="evenodd" clip-rule="evenodd" d="M11.0336 0C10.1242 0 8.60451 0.347813 7.17449 0.735C5.71152 1.12875 4.23668 1.59469 3.36944 1.87687C3.00685 1.99612 2.68539 2.2148 2.442 2.5078C2.1986 2.80079 2.04313 3.15622 1.99346 3.53325C1.20794 9.40931 3.03072 13.7642 5.24231 16.6451C6.18017 17.8775 7.29842 18.9628 8.5597 19.8647C9.06844 20.223 9.54028 20.4973 9.94095 20.685C10.31 20.8582 10.7067 21 11.0336 21C11.3604 21 11.7558 20.8582 12.1262 20.685C12.6092 20.4512 13.0713 20.1768 13.5074 19.8647C14.7687 18.9628 15.887 17.8775 16.8248 16.6451C19.0364 13.7642 20.8592 9.40931 20.0737 3.53325C20.0241 3.15604 19.8687 2.8004 19.6253 2.50718C19.3819 2.21396 19.0604 1.99504 18.6977 1.87556C17.4388 1.4645 16.17 1.08377 14.8927 0.733688C13.4626 0.349125 11.943 0 11.0336 0ZM13.862 6.75412C13.9857 6.6309 14.1536 6.56167 14.3285 6.56167C14.5035 6.56167 14.6714 6.6309 14.7951 6.75412C14.9189 6.87735 14.9884 7.04448 14.9884 7.21875C14.9884 7.39302 14.9189 7.56015 14.7951 7.68338L10.8411 11.6209C10.7799 11.682 10.7072 11.7305 10.6271 11.7636C10.5471 11.7966 10.4613 11.8137 10.3746 11.8137C10.2879 11.8137 10.2021 11.7966 10.122 11.7636C10.0419 11.7305 9.96922 11.682 9.908 11.6209L7.93102 9.65213C7.86974 9.59111 7.82114 9.51867 7.78798 9.43895C7.75482 9.35923 7.73776 9.27379 7.73776 9.1875C7.73776 9.10121 7.75482 9.01577 7.78798 8.93605C7.82114 8.85633 7.86974 8.78389 7.93102 8.72287C7.99229 8.66186 8.06502 8.61346 8.14508 8.58044C8.22513 8.54742 8.31093 8.53042 8.39758 8.53042C8.48423 8.53042 8.57004 8.54742 8.65009 8.58044C8.73014 8.61346 8.80288 8.66186 8.86415 8.72287L10.3746 10.2283L13.862 6.75412Z" fill="#FEDE7E"/>
</svg>
