<svg width="113" height="150" viewBox="0 0 113 150" fill="none" xmlns="http://www.w3.org/2000/svg">
<path d="M75.25 65.625V75.7125C80.3125 77.2688 84.625 81.3094 84.625 87.1875V109.688C84.625 117.338 77.3031 121.875 70.5625 121.875H42.4375C35.6969 121.875 28.375 117.338 28.375 109.688V87.1875C28.375 81.3094 32.6875 77.2688 37.75 75.7125V65.625C37.75 60.6522 39.7254 55.8831 43.2417 52.3667C46.7581 48.8504 51.5272 46.875 56.5 46.875C61.4728 46.875 66.2419 48.8504 69.7582 52.3667C73.2746 55.8831 75.25 60.6522 75.25 65.625ZM47.125 65.625V75H65.875V65.625C65.875 63.1386 64.8873 60.754 63.1291 58.9959C61.371 57.2377 58.9864 56.25 56.5 56.25C54.0136 56.25 51.629 57.2377 49.8709 58.9959C48.1127 60.754 47.125 63.1386 47.125 65.625ZM37.75 87.1875V109.688C37.75 110.081 37.9375 110.691 38.7344 111.328C39.8037 112.12 41.107 112.533 42.4375 112.5H70.5625C71.8927 112.531 73.1953 112.119 74.2656 111.328C75.0625 110.691 75.25 110.081 75.25 109.688V87.1875C75.25 86.7938 75.0625 86.1844 74.2656 85.5469C73.1963 84.7545 71.893 84.3421 70.5625 84.375H42.4375C41.107 84.3421 39.8037 84.7545 38.7344 85.5469C37.9375 86.1844 37.75 86.7938 37.75 87.1875Z" fill="#E4A951"/>
<path d="M112.75 131.25V42.1875L70.5625 0H19C14.0272 0 9.25805 1.97544 5.74175 5.49175C2.22544 9.00805 0.25 13.7772 0.25 18.75V131.25C0.25 136.223 2.22544 140.992 5.74175 144.508C9.25805 148.025 14.0272 150 19 150H94C98.9728 150 103.742 148.025 107.258 144.508C110.775 140.992 112.75 136.223 112.75 131.25ZM70.5625 28.125C70.5625 31.8546 72.0441 35.4315 74.6813 38.0687C77.3185 40.7059 80.8954 42.1875 84.625 42.1875H103.375V131.25C103.375 133.736 102.387 136.121 100.629 137.879C98.871 139.637 96.4864 140.625 94 140.625H19C16.5136 140.625 14.129 139.637 12.3709 137.879C10.6127 136.121 9.625 133.736 9.625 131.25V18.75C9.625 16.2636 10.6127 13.879 12.3709 12.1209C14.129 10.3627 16.5136 9.375 19 9.375H70.5625V28.125Z" fill="#E4A951"/>
</svg>
