<svg width="39" height="39" viewBox="0 0 39 39" fill="none" xmlns="http://www.w3.org/2000/svg">
<path d="M37.4709 0.560791H2.34555C1.50082 0.560791 0.818359 1.2442 0.818359 2.0901V37.2643C0.818359 38.1102 1.50082 38.7936 2.34555 38.7936H37.4709C38.3156 38.7936 38.998 38.1102 38.998 37.2643V2.0901C38.998 1.2442 38.3156 0.560791 37.4709 0.560791ZM32.1257 10.3914L30.1785 12.26C30.0067 12.3891 29.9256 12.5993 29.959 12.8048V26.5543C29.9256 26.7646 30.0067 26.9749 30.1785 27.0991L32.0875 28.9678V29.3835H22.5044V28.9869L24.4754 27.0705C24.6711 26.8745 24.6711 26.8172 24.6711 26.5256V15.3999L19.1828 29.3357H18.4431L12.0575 15.3999V24.743C12.0002 25.1349 12.1386 25.5316 12.4154 25.8136L14.983 28.9247V29.3405H7.6907V28.9247L10.2583 25.8136C10.3936 25.6736 10.4942 25.5039 10.5523 25.318C10.6103 25.1321 10.624 24.9352 10.5924 24.743V13.9423C10.6258 13.6412 10.5112 13.3497 10.2821 13.1442L8.00091 10.3914V9.97562H15.088L20.5573 21.995L25.3727 9.98517H32.1257V10.3914Z" fill="white"/>
</svg>
