<svg width="34" height="28" viewBox="0 0 34 28" fill="none" xmlns="http://www.w3.org/2000/svg">
<path d="M33.645 3.36254C32.4202 3.89088 31.0873 4.27113 29.7144 4.41923C31.1398 3.57242 32.2072 2.23461 32.7164 0.656784C31.3788 1.45246 29.9136 2.0104 28.3855 2.30585C27.7469 1.62312 26.9745 1.07922 26.1165 0.708047C25.2585 0.336877 24.3332 0.146389 23.3983 0.148454C19.6159 0.148454 16.5739 3.21444 16.5739 6.97689C16.5739 7.50523 16.6379 8.03357 16.742 8.5419C11.0783 8.24571 6.02705 5.53995 2.66887 1.39726C2.05697 2.4424 1.73632 3.63242 1.74026 4.8435C1.74026 7.21304 2.94505 9.30239 4.78224 10.5312C3.69955 10.4886 2.64222 10.191 1.69624 9.66263V9.74668C1.69624 13.0648 4.04176 15.8146 7.16779 16.447C6.58084 16.5995 5.97704 16.6775 5.37062 16.6792C4.92633 16.6792 4.50606 16.6352 4.08178 16.5751C4.94634 19.2809 7.46398 21.2461 10.4619 21.3102C8.1164 23.1474 5.1785 24.2281 1.98843 24.2281C1.41605 24.2281 0.887711 24.2081 0.339355 24.144C3.36532 26.0853 6.95565 27.206 10.8222 27.206C23.3743 27.206 30.2428 16.8073 30.2428 7.78141C30.2428 7.48522 30.2428 7.18902 30.2227 6.89283C31.5516 5.9202 32.7164 4.71542 33.645 3.36254Z" fill="white"/>
</svg>
