<svg width="56" height="40" viewBox="0 0 56 40" fill="none" xmlns="http://www.w3.org/2000/svg">
<path d="M55.5833 34.2673V5.01734C55.5833 2.31983 53.4058 0.142334 50.7083 0.142334H5.17578C2.47828 0.142334 0.300781 2.31983 0.300781 5.01734V34.2673C0.300781 36.9648 2.47828 39.1423 5.17578 39.1423H50.7083C53.4058 39.1423 55.5833 36.9648 55.5833 34.2673ZM51.3258 4.65983C52.3983 5.73234 51.8133 6.83734 51.2283 7.38984L38.0333 19.4798L50.7083 32.6748C51.0983 33.1298 51.3583 33.8448 50.9033 34.3323C50.4808 34.8523 49.5058 34.8198 49.0833 34.4948L34.8808 22.3723L27.9258 28.7098L21.0033 22.3723L6.80078 34.4948C6.37828 34.8198 5.40328 34.8523 4.98078 34.3323C4.52578 33.8448 4.78578 33.1298 5.17578 32.6748L17.8508 19.4798L4.65578 7.38984C4.07078 6.83734 3.48578 5.73234 4.55828 4.65983C5.63078 3.58733 6.73578 4.10734 7.64578 4.88734L27.9258 21.2673L48.2383 4.88734C49.1483 4.10734 50.2533 3.58733 51.3258 4.65983V4.65983Z" fill="#FEDE7E"/>
</svg>
