<svg width="39" height="39" viewBox="0 0 39 39" fill="none" xmlns="http://www.w3.org/2000/svg">
<g clip-path="url(#clip0_249_59)">
<path d="M19.2883 0.705811C8.82514 0.705811 0.343262 9.19951 0.343262 19.6772C0.343262 30.1549 8.82514 38.6486 19.2883 38.6486C29.7514 38.6486 38.2333 30.1549 38.2333 19.6772C38.2333 9.19951 29.7514 0.705811 19.2883 0.705811Z" fill="white"/>
<path d="M28.5067 11.6188L25.1228 28.7033C25.1228 28.7033 24.6496 29.8881 23.3481 29.3194L15.5395 23.3245L12.7002 21.9502L7.92039 20.3388C7.92039 20.3388 7.18686 20.0783 7.11581 19.5096C7.04477 18.9409 7.94407 18.6329 7.94407 18.6329L26.9447 11.1688C26.9447 11.1688 28.5065 10.4817 28.5065 11.6191" fill="black"/>
<path d="M14.9396 28.5113C14.9396 28.5113 14.7116 28.49 14.4274 27.5894C14.1437 26.689 12.7002 21.95 12.7002 21.95L24.1764 14.6519C24.1764 14.6519 24.8391 14.2491 24.8154 14.6519C24.8154 14.6519 24.9337 14.7231 24.5786 15.0548C24.2238 15.3866 15.5634 23.1823 15.5634 23.1823" fill="#191C1E"/>
<path d="M18.5335 25.6227L15.445 28.4426C15.445 28.4426 15.2035 28.6261 14.9395 28.5111L15.5309 23.2732" fill="#33383C"/>
</g>
<defs>
<clipPath id="clip0_249_59">
<rect width="37.89" height="37.9428" fill="white" transform="translate(0.343262 0.705811)"/>
</clipPath>
</defs>
</svg>
