<svg width="33" height="33" viewBox="0 0 33 33" fill="none" xmlns="http://www.w3.org/2000/svg">
<path d="M31.7106 0.666748H2.25153C1.54307 0.666748 0.970703 1.23912 0.970703 1.94758V31.4067C0.970703 32.1152 1.54307 32.6875 2.25153 32.6875H31.7106C32.4191 32.6875 32.9915 32.1152 32.9915 31.4067V1.94758C32.9915 1.23912 32.4191 0.666748 31.7106 0.666748ZM28.0122 10.0128H25.4546C23.4493 10.0128 23.061 10.9654 23.061 12.3663V15.4523H27.8481L27.2237 20.2835H23.061V32.6875H18.0698V20.2875H13.8951V15.4523H18.0698V11.89C18.0698 7.75535 20.5954 5.50189 24.2858 5.50189C26.055 5.50189 27.572 5.63397 28.0163 5.69401V10.0128H28.0122Z" fill="white"/>
</svg>
