<svg width="47" height="41" viewBox="0 0 47 41" fill="none" xmlns="http://www.w3.org/2000/svg">
<g clip-path="url(#clip0_1:32)">
<path d="M46.9999 4.99246C45.2704 5.81187 43.4121 6.36567 41.4616 6.61481C43.4527 5.33969 44.9814 3.32049 45.7013 0.91463C43.8086 2.11478 41.7377 2.96037 39.5783 3.41485C37.8193 1.41252 35.3134 0.161133 32.5399 0.161133C27.2145 0.161133 22.897 4.77432 22.897 10.4641C22.897 11.2717 22.9823 12.058 23.1466 12.8123C15.1328 12.3825 8.0277 8.2807 3.2717 2.04713C2.44186 3.56884 1.96635 5.3389 1.96635 7.22687C1.96635 10.8015 3.66882 13.955 6.25602 15.8027C4.72475 15.7515 3.22718 15.3096 1.88832 14.5139C1.88777 14.557 1.88777 14.6002 1.88777 14.6435C1.88777 19.6355 5.21155 23.7999 9.62258 24.7464C8.20264 25.159 6.71322 25.2194 5.2681 24.923C6.49506 29.0163 10.0562 31.995 14.2756 32.0784C10.9755 34.8416 6.81763 36.4889 2.30012 36.4889C1.52169 36.4889 0.754265 36.4401 -0.00012207 36.3449C4.26715 39.2683 9.33562 40.974 14.781 40.974C32.5175 40.974 42.2162 25.2741 42.2162 11.659C42.2162 11.2121 42.207 10.7678 42.1883 10.326C44.076 8.86782 45.7054 7.06172 46.9999 4.99246Z" fill="#55ACEE"/>
</g>
<defs>
<clipPath id="clip0_1:32">
<rect width="47" height="41" fill="white" transform="translate(-0.00012207)"/>
</clipPath>
</defs>
</svg>
