<svg width="56" height="55" viewBox="0 0 56 55" fill="none" xmlns="http://www.w3.org/2000/svg">
<g clip-path="url(#clip0_1:36)">
<path d="M27.9999 0C12.8119 0 0.499878 12.3121 0.499878 27.5C0.499878 42.688 12.8119 55 27.9999 55C43.1878 55 55.4999 42.688 55.4999 27.5C55.4999 12.3121 43.1878 0 27.9999 0Z" fill="#40B3E0"/>
<path d="M41.381 15.8191L36.469 40.5839C36.469 40.5839 35.7822 42.3014 33.893 41.477L22.5583 32.787L18.4367 30.795L11.4986 28.4592C11.4986 28.4592 10.4338 28.0815 10.3307 27.2572C10.2276 26.4328 11.533 25.9864 11.533 25.9864L39.1137 15.1668C39.1137 15.1668 41.3808 14.1708 41.3808 15.8195" fill="white"/>
<path d="M21.6873 40.3054C21.6873 40.3054 21.3564 40.2745 20.9439 38.9691C20.5321 37.6639 18.4367 30.7945 18.4367 30.7945L35.0953 20.2156C35.0953 20.2156 36.0571 19.6316 36.0227 20.2156C36.0227 20.2156 36.1944 20.3187 35.679 20.7995C35.164 21.2806 22.5929 32.5807 22.5929 32.5807" fill="#D2E5F1"/>
<path d="M26.9044 36.1186L22.4212 40.2062C22.4212 40.2062 22.0706 40.4722 21.6873 40.3055L22.5458 32.7129" fill="#B5CFE4"/>
</g>
<defs>
<clipPath id="clip0_1:36">
<rect width="55" height="55" fill="white" transform="translate(0.499878)"/>
</clipPath>
</defs>
</svg>
