<svg width="333" height="333" viewBox="0 0 333 333" fill="none" xmlns="http://www.w3.org/2000/svg">
<path d="M166.495 315.737C248.917 315.737 315.734 248.919 315.734 166.496C315.734 84.0727 248.917 17.2554 166.495 17.2554C84.0721 17.2554 17.2554 84.0727 17.2554 166.496C17.2554 248.919 84.0721 315.737 166.495 315.737Z" fill="#FEDE7E"/>
<path fill-rule="evenodd" clip-rule="evenodd" d="M294.042 155.858C308.12 115.882 321.807 79.3896 300.831 64.352L256.648 82.8281C229.179 52.6198 199.749 47.8918 168.954 60.9286C136.025 48.4033 105.278 49.4083 79.6435 82.1168L37.4612 64.4761C17.0178 79.1293 29.4945 114.156 43.1729 152.928C35.3666 183.515 41.6171 212.215 68.7862 244.037C93.2069 261.971 103.574 257.489 131.091 288.157C151.646 307.647 187.63 306.912 203.276 289.241C228.175 262.123 238.98 261.987 262.914 246.74C290.301 218.387 299.672 187.979 294.045 155.855L294.042 155.858Z" stroke="#FEDE7E" stroke-width="0.01389" stroke-miterlimit="2.61313" stroke-linecap="round" stroke-linejoin="round"/>
<path fill-rule="evenodd" clip-rule="evenodd" d="M294.042 155.858C308.12 115.882 321.807 79.3896 300.831 64.352L256.648 82.8281C229.179 52.6198 199.749 47.8918 168.954 60.9286C136.025 48.4033 105.278 49.4083 79.6435 82.1168L37.4612 64.4761C17.0178 79.1293 29.4945 114.156 43.1729 152.928C35.3666 183.515 41.6171 212.215 68.7862 244.037C93.2069 261.971 103.574 257.489 131.091 288.157C151.646 307.647 187.63 306.912 203.276 289.241C228.175 262.123 238.98 261.987 262.914 246.74C290.301 218.387 299.672 187.979 294.045 155.855L294.042 155.858Z" fill="black"/>
<path fill-rule="evenodd" clip-rule="evenodd" d="M103.826 122.354C117.387 120.808 124.96 124.5 128.949 131.326C113.461 143.155 104.958 140.434 103.826 122.354Z" fill="white"/>
<path fill-rule="evenodd" clip-rule="evenodd" d="M113.101 128.158C116.673 127.75 118.664 128.724 119.714 130.519C115.637 133.634 113.397 132.917 113.101 128.158Z" fill="black"/>
<path fill-rule="evenodd" clip-rule="evenodd" d="M233.921 122.354C220.361 120.808 212.788 124.5 208.798 131.326C224.287 143.155 232.789 140.434 233.921 122.354Z" fill="white"/>
<path fill-rule="evenodd" clip-rule="evenodd" d="M117.129 204.834L169.091 181.679L220.302 205.213C211.533 229.092 201.436 236.817 200.055 255.096C191.816 297.182 138.671 292.838 131.815 248.821C130.88 237.192 126.249 227.875 117.129 204.837V204.834Z" fill="#4D4D4D"/>
<path d="M166.732 287.578C186.761 287.578 202.997 272.002 202.997 252.789C202.997 233.577 186.761 218.001 166.732 218.001C146.704 218.001 130.468 233.577 130.468 252.789C130.468 272.002 146.704 287.578 166.732 287.578Z" fill="#B3B3B3"/>
<path fill-rule="evenodd" clip-rule="evenodd" d="M130.023 213.039L145.727 210.796L134.512 248.478L130.023 213.039Z" fill="white"/>
<path fill-rule="evenodd" clip-rule="evenodd" d="M203.586 213.039L187.886 210.796L199.101 248.478L203.586 213.039Z" fill="white"/>
<path fill-rule="evenodd" clip-rule="evenodd" d="M101.709 197.353C93.7479 187.437 94.765 177.073 103.404 177.027C98.9905 170.093 103.104 160.918 110.356 165.649C113.22 155.149 118.777 151.38 127.025 157.032L160.027 185.242L167.655 210.813C170.494 223.224 112.327 241.918 107.541 213.056C100.216 207.375 97.3741 199.002 101.712 197.356L101.709 197.353Z" fill="#EE8C1F"/>
<path fill-rule="evenodd" clip-rule="evenodd" d="M232.758 197.353C240.719 187.437 239.702 177.073 231.063 177.027C235.476 170.093 231.363 160.918 224.111 165.649C221.247 155.149 215.69 151.38 207.442 157.032L174.443 185.242L166.815 210.813C163.976 223.224 222.143 241.918 226.929 213.056C234.254 207.375 237.096 199.002 232.758 197.356V197.353Z" fill="#EE8C1F"/>
<path fill-rule="evenodd" clip-rule="evenodd" d="M145.245 182.978C149.431 161.756 188.608 166.215 188.759 182.53L167.674 209.893L145.245 182.978Z" fill="white"/>
<path fill-rule="evenodd" clip-rule="evenodd" d="M151.861 183.701C154.769 168.954 181.999 172.054 182.102 183.389L167.449 202.407L151.861 183.701Z" fill="black"/>
<path d="M118.199 181.427C120.422 181.427 122.225 179.424 122.225 176.953C122.225 174.482 120.422 172.479 118.199 172.479C115.975 172.479 114.173 174.482 114.173 176.953C114.173 179.424 115.975 181.427 118.199 181.427Z" fill="black"/>
<path d="M111.953 190.368C114.177 190.368 115.979 188.365 115.979 185.895C115.979 183.424 114.177 181.421 111.953 181.421C109.73 181.421 107.927 183.424 107.927 185.895C107.927 188.365 109.73 190.368 111.953 190.368Z" fill="black"/>
<path d="M125.367 193.953C127.59 193.953 129.393 191.95 129.393 189.48C129.393 187.009 127.59 185.006 125.367 185.006C123.144 185.006 121.341 187.009 121.341 189.48C121.341 191.95 123.144 193.953 125.367 193.953Z" fill="black"/>
<path d="M115.538 204.705C117.761 204.705 119.564 202.702 119.564 200.231C119.564 197.76 117.761 195.757 115.538 195.757C113.315 195.757 111.512 197.76 111.512 200.231C111.512 202.702 113.315 204.705 115.538 204.705Z" fill="black"/>
<path d="M218.292 178.731C220.515 178.731 222.318 176.728 222.318 174.257C222.318 171.786 220.515 169.783 218.292 169.783C216.069 169.783 214.266 171.786 214.266 174.257C214.266 176.728 216.069 178.731 218.292 178.731Z" fill="black"/>
<path d="M224.538 187.707C226.761 187.707 228.563 185.704 228.563 183.234C228.563 180.763 226.761 178.76 224.538 178.76C222.314 178.76 220.512 180.763 220.512 183.234C220.512 185.704 222.314 187.707 224.538 187.707Z" fill="black"/>
<path d="M211.125 191.256C213.349 191.256 215.151 189.253 215.151 186.782C215.151 184.311 213.349 182.308 211.125 182.308C208.902 182.308 207.1 184.311 207.1 186.782C207.1 189.253 208.902 191.256 211.125 191.256Z" fill="black"/>
<path d="M220.954 202.008C223.178 202.008 224.98 200.005 224.98 197.534C224.98 195.063 223.178 193.06 220.954 193.06C218.731 193.06 216.929 195.063 216.929 197.534C216.929 200.005 218.731 202.008 220.954 202.008Z" fill="black"/>
<path fill-rule="evenodd" clip-rule="evenodd" d="M67.5807 92.6162L62.1233 103.779L42.6394 79.9214L67.5807 92.6162Z" fill="white"/>
<path fill-rule="evenodd" clip-rule="evenodd" d="M272.904 93.1708L278.361 104.331L297.848 80.4761L272.904 93.1708Z" fill="white"/>
<path d="M166.732 290.053C186.761 290.053 202.997 274.478 202.997 255.265C202.997 236.052 186.761 220.477 166.732 220.477C146.704 220.477 130.468 236.052 130.468 255.265C130.468 274.478 146.704 290.053 166.732 290.053Z" fill="black"/>
<path fill-rule="evenodd" clip-rule="evenodd" d="M225.426 128.158C221.854 127.75 219.862 128.724 218.812 130.519C222.889 133.634 225.129 132.917 225.426 128.158Z" fill="black"/>
<path fill-rule="evenodd" clip-rule="evenodd" d="M115.39 116.061C128.869 117.432 137.674 117.395 145.444 127.56L131.033 146.051L140.141 130.145C142.387 123.168 131.969 119.375 115.39 116.058V116.061Z" fill="#FFFFCC"/>
<path fill-rule="evenodd" clip-rule="evenodd" d="M221.56 116.061C208.082 117.432 199.276 117.395 191.506 127.56L205.917 146.051L196.81 130.145C194.564 123.168 204.982 119.375 221.56 116.058V116.061Z" fill="#FFFFCC"/>
<path fill-rule="evenodd" clip-rule="evenodd" d="M172.637 183.354L167.706 180.793L167.046 194.55L172.637 183.354Z" fill="white"/>
</svg>
